<?xml version="1.0" encoding="iso-8859-1"?>
<!-- Generator: Adobe Illustrator 19.0.0, SVG Export Plug-In . SVG Version: 6.00 Build 0)  -->
<svg version="1.1" id="Capa_1" xmlns="http://www.w3.org/2000/svg" xmlns:xlink="http://www.w3.org/1999/xlink" x="0px" y="0px"
	 viewBox="0 0 511.999 511.999" style="enable-background:new 0 0 511.999 511.999;" xml:space="preserve" fill="#fff">
<g>
	<g>
		<path d="M236.861,35.338c-8.936,0-16.181-7.245-16.181-16.181V0h-41v19.157c0,8.936-7.245,16.181-16.181,16.181h-27.544v33.69
			h128.451v-33.69H236.861z"/>
	</g>
</g>
<g>
	<g>
		<path d="M486.019,118.922c-11.532-8.878-28.134-6.731-37.012,4.8l-5.987,7.767l41.726,32.33l6.073-7.896
			C499.698,144.403,497.541,127.8,486.019,118.922z"/>
	</g>
</g>
<g>
	<g>
		<path d="M108.491,268.109h183.386c1.588,0,3.12,0.238,4.57,0.666l88.204-114.533V80.03c0-24.277-19.751-44.027-44.027-44.027
			h-43.855V85.21c0,8.936-7.245,16.181-16.181,16.181H119.771c-8.936,0-16.181-7.245-16.181-16.181V36.001H59.735
			c-24.277,0-44.027,19.751-44.027,44.027v387.943c0,24.277,19.751,44.027,44.027,44.027h280.887
			c24.277,0,44.027-19.751,44.027-44.027V346.811l-14.996,19.471c-2.309,3.01-5.61,5.103-9.32,5.922l-64.779,14.347
			c-1.165,0.259-2.33,0.388-3.495,0.388c-3.549,0-7.023-1.165-9.881-3.366c-3.797-2.923-6.095-7.379-6.289-12.168l-2.675-66.3
			c-0.063-1.571,0.118-3.129,0.501-4.633H108.491c-8.936,0-16.181-7.245-16.181-16.181
			C92.31,275.354,99.554,268.109,108.491,268.109z M108.491,354.574h106.229c8.936,0,16.181,7.245,16.181,16.181
			c0,8.936-7.245,16.181-16.181,16.181H108.491c-8.936,0-16.181-7.245-16.181-16.181C92.31,361.819,99.555,354.574,108.491,354.574z
			 M108.491,181.644h183.386c8.936,0,16.181,7.245,16.181,16.181c0,8.936-7.245,16.181-16.181,16.181H108.491
			c-8.936,0-16.181-7.245-16.181-16.181C92.31,188.889,99.554,181.644,108.491,181.644z"/>
	</g>
</g>
<g>
	<g>
		<polygon points="423.279,157.132 305.791,309.679 307.442,350.769 347.604,341.88 464.994,189.451 		"/>
	</g>
</g>
<g>
</g>
<g>
</g>
<g>
</g>
<g>
</g>
<g>
</g>
<g>
</g>
<g>
</g>
<g>
</g>
<g>
</g>
<g>
</g>
<g>
</g>
<g>
</g>
<g>
</g>
<g>
</g>
<g>
</g>
</svg>
